<?xml version="1.0" encoding="utf-8" ?>
<svg baseProfile="tiny" height="100%" version="1.2" width="100%" xmlns="http://www.w3.org/2000/svg" xmlns:ev="http://www.w3.org/2001/xml-events" xmlns:xlink="http://www.w3.org/1999/xlink"><defs /><line stroke="blue" x1="61.9484" x2="61.9484" y1="0" y2="100" /><line stroke="orange" x1="-38.0516" x2="-38.0516" y1="0" y2="50" /><line stroke="yellow" x1="-38.0516" x2="-38.0516" y1="50" y2="100" /><line stroke="red" x1="63.5388" x2="63.5388" y1="0" y2="100" /><line stroke="yellow" x1="-8.0516" x2="-8.0516" y1="50" y2="100" /><line stroke="red" x1="65.2128" x2="65.2128" y1="0" y2="100" /><line stroke="yellow" x1="21.9484" x2="21.9484" y1="50" y2="100" /><line stroke="red" x1="66.9526" x2="66.9526" y1="0" y2="100" /><line stroke="yellow" x1="51.9484" x2="51.9484" y1="50" y2="100" /><line stroke="red" x1="68.5786" x2="68.5786" y1="0" y2="100" /><line stroke="yellow" x1="81.9484" x2="81.9484" y1="50" y2="100" /><line stroke="red" x1="70.2402" x2="70.2402" y1="0" y2="100" /><line stroke="yellow" x1="111.9484" x2="111.9484" y1="50" y2="100" /><line stroke="red" x1="71.8793" x2="71.8793" y1="0" y2="100" /><line stroke="yellow" x1="141.9484" x2="141.9484" y1="50" y2="100" /><line stroke="red" x1="73.5468" x2="73.5468" y1="0" y2="100" /><line stroke="yellow" x1="171.9484" x2="171.9484" y1="50" y2="100" /><line stroke="red" x1="75.2369" x2="75.2369" y1="0" y2="100" /><line stroke="yellow" x1="201.9484" x2="201.9484" y1="50" y2="100" /><line stroke="red" x1="83.569" x2="83.569" y1="0" y2="100" /><line stroke="yellow" x1="231.9484" x2="231.9484" y1="50" y2="100" /><line stroke="red" x1="113.5477" x2="113.5477" y1="0" y2="100" /><line stroke="yellow" x1="261.9484" x2="261.9484" y1="50" y2="100" /><line stroke="red" x1="143.5801" x2="143.5801" y1="0" y2="100" /><line stroke="yellow" x1="291.9484" x2="291.9484" y1="50" y2="100" /><line stroke="red" x1="173.5734" x2="173.5734" y1="0" y2="100" /><line stroke="blue" x1="186.9942" x2="186.9942" y1="0" y2="100" /><line stroke="orange" x1="201.9484" x2="201.9484" y1="0" y2="50" /><line stroke="yellow" x1="201.9484" x2="201.9484" y1="50" y2="100" /><line stroke="red" x1="188.6143" x2="188.6143" y1="0" y2="100" /><line stroke="yellow" x1="231.9484" x2="231.9484" y1="50" y2="100" /><line stroke="red" x1="190.2331" x2="190.2331" y1="0" y2="100" /><line stroke="yellow" x1="261.9484" x2="261.9484" y1="50" y2="100" /><line stroke="red" x1="191.9144" x2="191.9144" y1="0" y2="100" /><line stroke="yellow" x1="291.9484" x2="291.9484" y1="50" y2="100" /><line stroke="red" x1="193.5822" x2="193.5822" y1="0" y2="100" /><line stroke="yellow" x1="321.9484" x2="321.9484" y1="50" y2="100" /><line stroke="red" x1="203.5892" x2="203.5892" y1="0" y2="100" /><line stroke="yellow" x1="351.9484" x2="351.9484" y1="50" y2="100" /><line stroke="red" x1="233.5736" x2="233.5736" y1="0" y2="100" /><line stroke="yellow" x1="381.9484" x2="381.9484" y1="50" y2="100" /><line stroke="red" x1="263.5506" x2="263.5506" y1="0" y2="100" /><line stroke="yellow" x1="411.9484" x2="411.9484" y1="50" y2="100" /><line stroke="red" x1="293.5681" x2="293.5681" y1="0" y2="100" /><line stroke="blue" x1="301.9509" x2="301.9509" y1="0" y2="100" /><line stroke="orange" x1="201.9509" x2="201.9509" y1="0" y2="50" /><line stroke="yellow" x1="201.9509" x2="201.9509" y1="50" y2="100" /><line stroke="red" x1="303.5611" x2="303.5611" y1="0" y2="100" /><line stroke="yellow" x1="231.9509" x2="231.9509" y1="50" y2="100" /><line stroke="red" x1="305.1964" x2="305.1964" y1="0" y2="100" /><line stroke="yellow" x1="261.9509" x2="261.9509" y1="50" y2="100" /><line stroke="red" x1="306.8685" x2="306.8685" y1="0" y2="100" /><line stroke="yellow" x1="291.9509" x2="291.9509" y1="50" y2="100" /><line stroke="red" x1="308.5657" x2="308.5657" y1="0" y2="100" /><line stroke="yellow" x1="321.9509" x2="321.9509" y1="50" y2="100" /><line stroke="red" x1="310.2283" x2="310.2283" y1="0" y2="100" /><line stroke="yellow" x1="351.9509" x2="351.9509" y1="50" y2="100" /><line stroke="red" x1="311.9234" x2="311.9234" y1="0" y2="100" /><line stroke="yellow" x1="381.9509" x2="381.9509" y1="50" y2="100" /><line stroke="red" x1="313.5599" x2="313.5599" y1="0" y2="100" /><line stroke="yellow" x1="411.9509" x2="411.9509" y1="50" y2="100" /><line stroke="red" x1="315.2273" x2="315.2273" y1="0" y2="100" /><line stroke="yellow" x1="441.9509" x2="441.9509" y1="50" y2="100" /><line stroke="red" x1="323.565" x2="323.565" y1="0" y2="100" /><line stroke="yellow" x1="471.9509" x2="471.9509" y1="50" y2="100" /><line stroke="red" x1="353.5798" x2="353.5798" y1="0" y2="100" /><line stroke="yellow" x1="501.9509" x2="501.9509" y1="50" y2="100" /><line stroke="red" x1="383.5576" x2="383.5576" y1="0" y2="100" /><line stroke="yellow" x1="531.9509" x2="531.9509" y1="50" y2="100" /><line stroke="red" x1="413.5301" x2="413.5301" y1="0" y2="100" /><line stroke="blue" x1="418.6203" x2="418.6203" y1="0" y2="100" /><line stroke="orange" x1="318.6203" x2="318.6203" y1="0" y2="50" /><line stroke="yellow" x1="318.6203" x2="318.6203" y1="50" y2="100" /><line stroke="red" x1="420.2489" x2="420.2489" y1="0" y2="100" /><line stroke="yellow" x1="348.6203" x2="348.6203" y1="50" y2="100" /><line stroke="red" x1="421.9" x2="421.9" y1="0" y2="100" /><line stroke="yellow" x1="378.6203" x2="378.6203" y1="50" y2="100" /><line stroke="red" x1="423.5499" x2="423.5499" y1="0" y2="100" /><line stroke="yellow" x1="408.6203" x2="408.6203" y1="50" y2="100" /><line stroke="red" x1="425.2279" x2="425.2279" y1="0" y2="100" /><line stroke="yellow" x1="438.6203" x2="438.6203" y1="50" y2="100" /><line stroke="red" x1="426.8981" x2="426.8981" y1="0" y2="100" /><line stroke="yellow" x1="468.6203" x2="468.6203" y1="50" y2="100" /><line stroke="red" x1="428.604" x2="428.604" y1="0" y2="100" /><line stroke="yellow" x1="498.6203" x2="498.6203" y1="50" y2="100" /><line stroke="red" x1="430.2479" x2="430.2479" y1="0" y2="100" /><line stroke="yellow" x1="528.6203" x2="528.6203" y1="50" y2="100" /><line stroke="red" x1="431.9012" x2="431.9012" y1="0" y2="100" /><line stroke="yellow" x1="558.6203" x2="558.6203" y1="50" y2="100" /><line stroke="red" x1="440.2282" x2="440.2282" y1="0" y2="100" /><line stroke="yellow" x1="588.6203" x2="588.6203" y1="50" y2="100" /><line stroke="red" x1="470.2704" x2="470.2704" y1="0" y2="100" /><line stroke="yellow" x1="618.6203" x2="618.6203" y1="50" y2="100" /><line stroke="red" x1="500.1911" x2="500.1911" y1="0" y2="100" /><line stroke="yellow" x1="648.6203" x2="648.6203" y1="50" y2="100" /><line stroke="red" x1="530.2432" x2="530.2432" y1="0" y2="100" /><line stroke="blue" x1="541.8923" x2="541.8923" y1="0" y2="100" /><line stroke="orange" x1="441.8923" x2="441.8923" y1="0" y2="50" /><line stroke="yellow" x1="441.8923" x2="441.8923" y1="50" y2="100" /><line stroke="red" x1="543.5272" x2="543.5272" y1="0" y2="100" /><line stroke="yellow" x1="471.8923" x2="471.8923" y1="50" y2="100" /><line stroke="red" x1="545.2452" x2="545.2452" y1="0" y2="100" /><line stroke="yellow" x1="501.8923" x2="501.8923" y1="50" y2="100" /><line stroke="red" x1="546.9016" x2="546.9016" y1="0" y2="100" /><line stroke="yellow" x1="531.8923" x2="531.8923" y1="50" y2="100" /><line stroke="red" x1="548.5534" x2="548.5534" y1="0" y2="100" /><line stroke="yellow" x1="561.8923" x2="561.8923" y1="50" y2="100" /><line stroke="red" x1="550.2267" x2="550.2267" y1="0" y2="100" /><line stroke="yellow" x1="591.8923" x2="591.8923" y1="50" y2="100" /><line stroke="red" x1="551.9041" x2="551.9041" y1="0" y2="100" /><line stroke="yellow" x1="621.8923" x2="621.8923" y1="50" y2="100" /><line stroke="red" x1="553.5951" x2="553.5951" y1="0" y2="100" /><line stroke="yellow" x1="651.8923" x2="651.8923" y1="50" y2="100" /><line stroke="red" x1="555.2142" x2="555.2142" y1="0" y2="100" /><line stroke="yellow" x1="681.8923" x2="681.8923" y1="50" y2="100" /><line stroke="red" x1="561.9119" x2="561.9119" y1="0" y2="100" /><line stroke="yellow" x1="711.8923" x2="711.8923" y1="50" y2="100" /><line stroke="red" x1="593.5777" x2="593.5777" y1="0" y2="100" /><line stroke="yellow" x1="741.8923" x2="741.8923" y1="50" y2="100" /><line stroke="red" x1="621.9034" x2="621.9034" y1="0" y2="100" /><line stroke="yellow" x1="771.8923" x2="771.8923" y1="50" y2="100" /><line stroke="red" x1="651.911" x2="651.911" y1="0" y2="100" /></svg>