<?xml version="1.0" encoding="utf-8" ?>
<svg baseProfile="tiny" height="100%" version="1.2" width="100%" xmlns="http://www.w3.org/2000/svg" xmlns:ev="http://www.w3.org/2001/xml-events" xmlns:xlink="http://www.w3.org/1999/xlink"><defs /><line stroke="blue" x1="15.4467" x2="15.4467" y1="0" y2="100" /><line stroke="orange" x1="-84.5533" x2="-84.5533" y1="0" y2="100" /><line stroke="yellow" x1="-84.5533" x2="-84.5533" y1="0" y2="100" /><line stroke="red" x1="17.0736" x2="17.0736" y1="0" y2="100" /><line stroke="yellow" x1="-54.5533" x2="-54.5533" y1="0" y2="100" /><line stroke="red" x1="18.73" x2="18.73" y1="0" y2="100" /><line stroke="yellow" x1="-24.5533" x2="-24.5533" y1="0" y2="100" /><line stroke="red" x1="20.3526" x2="20.3526" y1="0" y2="100" /><line stroke="yellow" x1="5.4467" x2="5.4467" y1="0" y2="100" /><line stroke="red" x1="22.0352" x2="22.0352" y1="0" y2="100" /><line stroke="yellow" x1="35.4467" x2="35.4467" y1="0" y2="100" /><line stroke="red" x1="23.7124" x2="23.7124" y1="0" y2="100" /><line stroke="yellow" x1="65.4467" x2="65.4467" y1="0" y2="100" /><line stroke="red" x1="25.3848" x2="25.3848" y1="0" y2="100" /><line stroke="yellow" x1="95.4467" x2="95.4467" y1="0" y2="100" /><line stroke="red" x1="27.0848" x2="27.0848" y1="0" y2="100" /><line stroke="yellow" x1="125.4467" x2="125.4467" y1="0" y2="100" /><line stroke="red" x1="28.7116" x2="28.7116" y1="0" y2="100" /><line stroke="yellow" x1="155.4467" x2="155.4467" y1="0" y2="100" /><line stroke="red" x1="37.0403" x2="37.0403" y1="0" y2="100" /><line stroke="yellow" x1="185.4467" x2="185.4467" y1="0" y2="100" /><line stroke="red" x1="67.0106" x2="67.0106" y1="0" y2="100" /><line stroke="yellow" x1="215.4467" x2="215.4467" y1="0" y2="100" /><line stroke="red" x1="97.0389" x2="97.0389" y1="0" y2="100" /><line stroke="yellow" x1="245.4467" x2="245.4467" y1="0" y2="100" /><line stroke="red" x1="127.0608" x2="127.0608" y1="0" y2="100" /><line stroke="blue" x1="145.4174" x2="145.4174" y1="0" y2="100" /><line stroke="orange" x1="155.4467" x2="155.4467" y1="0" y2="100" /><line stroke="yellow" x1="155.4467" x2="155.4467" y1="0" y2="100" /><line stroke="red" x1="147.0423" x2="147.0423" y1="0" y2="100" /><line stroke="yellow" x1="185.4467" x2="185.4467" y1="0" y2="100" /><line stroke="red" x1="148.704" x2="148.704" y1="0" y2="100" /><line stroke="yellow" x1="215.4467" x2="215.4467" y1="0" y2="100" /><line stroke="red" x1="150.3773" x2="150.3773" y1="0" y2="100" /><line stroke="yellow" x1="245.4467" x2="245.4467" y1="0" y2="100" /><line stroke="red" x1="152.2537" x2="152.2537" y1="0" y2="100" /><line stroke="yellow" x1="275.4467" x2="275.4467" y1="0" y2="100" /><line stroke="red" x1="157.0192" x2="157.0192" y1="0" y2="100" /><line stroke="yellow" x1="305.4467" x2="305.4467" y1="0" y2="100" /><line stroke="red" x1="187.024" x2="187.024" y1="0" y2="100" /><line stroke="yellow" x1="335.4467" x2="335.4467" y1="0" y2="100" /><line stroke="red" x1="217.0357" x2="217.0357" y1="0" y2="100" /><line stroke="yellow" x1="365.4467" x2="365.4467" y1="0" y2="100" /><line stroke="red" x1="247.0331" x2="247.0331" y1="0" y2="100" /><line stroke="blue" x1="258.754" x2="258.754" y1="0" y2="100" /><line stroke="orange" x1="158.754" x2="158.754" y1="0" y2="100" /><line stroke="yellow" x1="158.754" x2="158.754" y1="0" y2="100" /><line stroke="red" x1="260.3475" x2="260.3475" y1="0" y2="100" /><line stroke="yellow" x1="188.754" x2="188.754" y1="0" y2="100" /><line stroke="red" x1="262.0018" x2="262.0018" y1="0" y2="100" /><line stroke="yellow" x1="218.754" x2="218.754" y1="0" y2="100" /><line stroke="red" x1="263.7114" x2="263.7114" y1="0" y2="100" /><line stroke="yellow" x1="248.754" x2="248.754" y1="0" y2="100" /><line stroke="red" x1="265.3727" x2="265.3727" y1="0" y2="100" /><line stroke="yellow" x1="278.754" x2="278.754" y1="0" y2="100" /><line stroke="red" x1="267.0491" x2="267.0491" y1="0" y2="100" /><line stroke="yellow" x1="308.754" x2="308.754" y1="0" y2="100" /><line stroke="red" x1="268.7194" x2="268.7194" y1="0" y2="100" /><line stroke="yellow" x1="338.754" x2="338.754" y1="0" y2="100" /><line stroke="red" x1="270.356" x2="270.356" y1="0" y2="100" /><line stroke="yellow" x1="368.754" x2="368.754" y1="0" y2="100" /><line stroke="red" x1="272.0249" x2="272.0249" y1="0" y2="100" /><line stroke="yellow" x1="398.754" x2="398.754" y1="0" y2="100" /><line stroke="red" x1="280.3629" x2="280.3629" y1="0" y2="100" /><line stroke="yellow" x1="428.754" x2="428.754" y1="0" y2="100" /><line stroke="red" x1="310.3945" x2="310.3945" y1="0" y2="100" /></svg>