<?xml version="1.0" encoding="utf-8" ?>
<svg baseProfile="tiny" height="100%" version="1.2" width="100%" xmlns="http://www.w3.org/2000/svg" xmlns:ev="http://www.w3.org/2001/xml-events" xmlns:xlink="http://www.w3.org/1999/xlink"><defs /><line stroke="blue" x1="2.1143" x2="2.1143" y1="40" y2="60" /><line stroke="orange" x1="5.6569" x2="5.6569" y1="0" y2="50" /><line stroke="yellow" x1="5.6569" x2="5.6569" y1="50" y2="100" /><line stroke="red" x1="5.665" x2="5.665" y1="0" y2="10" /><line stroke="yellow" x1="35.1801" x2="35.1801" y1="50" y2="100" /><line stroke="red" x1="35.3479" x2="35.3479" y1="0" y2="10" /><line stroke="yellow" x1="64.7033" x2="64.7033" y1="50" y2="100" /><line stroke="red" x1="64.8358" x2="64.8358" y1="0" y2="10" /><line stroke="yellow" x1="94.2265" x2="94.2265" y1="50" y2="100" /><line stroke="red" x1="94.2334" x2="94.2334" y1="0" y2="10" /><line stroke="blue" x1="120.4964" x2="120.4964" y1="40" y2="60" /><line stroke="orange" x1="123.7497" x2="123.7497" y1="0" y2="50" /><line stroke="yellow" x1="123.7497" x2="123.7497" y1="50" y2="100" /><line stroke="red" x1="123.7604" x2="123.7604" y1="0" y2="10" /><line stroke="yellow" x1="153.2729" x2="153.2729" y1="50" y2="100" /><line stroke="red" x1="153.2868" x2="153.2868" y1="0" y2="10" /><line stroke="yellow" x1="182.7961" x2="182.7961" y1="50" y2="100" /><line stroke="red" x1="182.8057" x2="182.8057" y1="0" y2="10" /><line stroke="yellow" x1="212.3193" x2="212.3193" y1="50" y2="100" /><line stroke="red" x1="212.3304" x2="212.3304" y1="0" y2="10" /><line stroke="blue" x1="236.2417" x2="236.2417" y1="40" y2="60" /><line stroke="orange" x1="241.8425" x2="241.8425" y1="0" y2="50" /><line stroke="yellow" x1="241.8425" x2="241.8425" y1="50" y2="100" /><line stroke="red" x1="241.9442" x2="241.9442" y1="0" y2="10" /><line stroke="yellow" x1="271.3657" x2="271.3657" y1="50" y2="100" /><line stroke="red" x1="271.3761" x2="271.3761" y1="0" y2="10" /><line stroke="yellow" x1="300.8889" x2="300.8889" y1="50" y2="100" /><line stroke="red" x1="300.9347" x2="300.9347" y1="0" y2="10" /><line stroke="yellow" x1="330.4121" x2="330.4121" y1="50" y2="100" /><line stroke="red" x1="330.44" x2="330.44" y1="0" y2="10" /><line stroke="blue" x1="354.4974" x2="354.4974" y1="40" y2="60" /><line stroke="orange" x1="359.9353" x2="359.9353" y1="0" y2="50" /><line stroke="yellow" x1="359.9353" x2="359.9353" y1="50" y2="100" /><line stroke="red" x1="359.9529" x2="359.9529" y1="0" y2="10" /><line stroke="yellow" x1="389.4585" x2="389.4585" y1="50" y2="100" /><line stroke="red" x1="389.4697" x2="389.4697" y1="0" y2="10" /><line stroke="yellow" x1="418.9817" x2="418.9817" y1="50" y2="100" /><line stroke="red" x1="418.9935" x2="418.9935" y1="0" y2="10" /><line stroke="yellow" x1="448.5049" x2="448.5049" y1="50" y2="100" /><line stroke="red" x1="448.5137" x2="448.5137" y1="0" y2="10" /><line stroke="yellow" x1="478.0281" x2="478.0281" y1="50" y2="100" /><line stroke="red" x1="478.0363" x2="478.0363" y1="0" y2="10" /><line stroke="yellow" x1="507.5513" x2="507.5513" y1="50" y2="100" /><line stroke="red" x1="507.5588" x2="507.5588" y1="0" y2="10" /><line stroke="blue" x1="533.285" x2="533.285" y1="40" y2="60" /><line stroke="orange" x1="537.0745" x2="537.0745" y1="0" y2="50" /><line stroke="yellow" x1="537.0745" x2="537.0745" y1="50" y2="100" /><line stroke="red" x1="537.0869" x2="537.0869" y1="0" y2="10" /><line stroke="yellow" x1="566.5977" x2="566.5977" y1="50" y2="100" /><line stroke="red" x1="566.6154" x2="566.6154" y1="0" y2="10" /><line stroke="blue" x1="590.9229" x2="590.9229" y1="40" y2="60" /><line stroke="orange" x1="596.1209" x2="596.1209" y1="0" y2="50" /><line stroke="yellow" x1="596.1209" x2="596.1209" y1="50" y2="100" /><line stroke="red" x1="596.1426" x2="596.1426" y1="0" y2="10" /><line stroke="yellow" x1="625.6441" x2="625.6441" y1="50" y2="100" /><line stroke="red" x1="625.661" x2="625.661" y1="0" y2="10" /><line stroke="yellow" x1="655.1673" x2="655.1673" y1="50" y2="100" /><line stroke="red" x1="655.183" x2="655.183" y1="0" y2="10" /><line stroke="yellow" x1="684.6905" x2="684.6905" y1="50" y2="100" /><line stroke="red" x1="684.7031" x2="684.7031" y1="0" y2="10" /><line stroke="blue" x1="708.074" x2="708.074" y1="40" y2="60" /><line stroke="orange" x1="714.2137" x2="714.2137" y1="0" y2="50" /><line stroke="yellow" x1="714.2137" x2="714.2137" y1="50" y2="100" /><line stroke="red" x1="714.4133" x2="714.4133" y1="0" y2="10" /><line stroke="yellow" x1="743.7369" x2="743.7369" y1="50" y2="100" /><line stroke="red" x1="743.7443" x2="743.7443" y1="0" y2="10" /><line stroke="yellow" x1="773.2601" x2="773.2601" y1="50" y2="100" /><line stroke="red" x1="773.2902" x2="773.2902" y1="0" y2="10" /><line stroke="yellow" x1="802.7833" x2="802.7833" y1="50" y2="100" /><line stroke="red" x1="802.7998" x2="802.7998" y1="0" y2="10" /><line stroke="blue" x1="826.7859" x2="826.7859" y1="40" y2="60" /><line stroke="orange" x1="832.3065" x2="832.3065" y1="0" y2="50" /><line stroke="yellow" x1="832.3065" x2="832.3065" y1="50" y2="100" /><line stroke="red" x1="832.3225" x2="832.3225" y1="0" y2="10" /><line stroke="yellow" x1="861.8297" x2="861.8297" y1="50" y2="100" /><line stroke="red" x1="861.8463" x2="861.8463" y1="0" y2="10" /><line stroke="yellow" x1="891.3529" x2="891.3529" y1="50" y2="100" /><line stroke="red" x1="891.376" x2="891.376" y1="0" y2="10" /><line stroke="yellow" x1="920.8761" x2="920.8761" y1="50" y2="100" /><line stroke="red" x1="920.8904" x2="920.8904" y1="0" y2="10" /><line stroke="yellow" x1="950.3994" x2="950.3994" y1="50" y2="100" /><line stroke="red" x1="950.4135" x2="950.4135" y1="0" y2="10" /><line stroke="blue" x1="951.8141" x2="951.8141" y1="40" y2="60" /><line stroke="orange" x1="851.8141" x2="851.8141" y1="0" y2="50" /><line stroke="yellow" x1="851.8141" x2="851.8141" y1="50" y2="100" /><line stroke="red" x1="951.8386" x2="951.8386" y1="0" y2="10" /><line stroke="yellow" x1="881.3373" x2="881.3373" y1="50" y2="100" /><line stroke="red" x1="951.9459" x2="951.9459" y1="0" y2="10" /><line stroke="yellow" x1="910.8605" x2="910.8605" y1="50" y2="100" /><line stroke="red" x1="952.1177" x2="952.1177" y1="0" y2="10" /><line stroke="yellow" x1="940.3837" x2="940.3837" y1="50" y2="100" /><line stroke="red" x1="952.1881" x2="952.1881" y1="0" y2="10" /><line stroke="yellow" x1="969.9069" x2="969.9069" y1="50" y2="100" /><line stroke="red" x1="969.9146" x2="969.9146" y1="0" y2="10" /><line stroke="yellow" x1="999.4301" x2="999.4301" y1="50" y2="100" /><line stroke="red" x1="999.4415" x2="999.4415" y1="0" y2="10" /><line stroke="yellow" x1="1028.9533" x2="1028.9533" y1="50" y2="100" /><line stroke="red" x1="1028.9719" x2="1028.9719" y1="0" y2="10" /><line stroke="yellow" x1="1058.4765" x2="1058.4765" y1="50" y2="100" /><line stroke="red" x1="1058.4872" x2="1058.4872" y1="0" y2="10" /><line stroke="blue" x1="1067.2789" x2="1067.2789" y1="40" y2="60" /><line stroke="orange" x1="967.2789" x2="967.2789" y1="0" y2="50" /><line stroke="yellow" x1="967.2789" x2="967.2789" y1="50" y2="100" /><line stroke="red" x1="1067.3077" x2="1067.3077" y1="0" y2="10" /><line stroke="yellow" x1="996.8021" x2="996.8021" y1="50" y2="100" /><line stroke="red" x1="1067.3824" x2="1067.3824" y1="0" y2="10" /><line stroke="yellow" x1="1026.3253" x2="1026.3253" y1="50" y2="100" /><line stroke="red" x1="1067.4526" x2="1067.4526" y1="0" y2="10" /><line stroke="yellow" x1="1055.8485" x2="1055.8485" y1="50" y2="100" /><line stroke="red" x1="1067.5226" x2="1067.5226" y1="0" y2="10" /><line stroke="yellow" x1="1085.3717" x2="1085.3717" y1="50" y2="100" /><line stroke="red" x1="1085.3817" x2="1085.3817" y1="0" y2="10" /><line stroke="yellow" x1="1114.8949" x2="1114.8949" y1="50" y2="100" /><line stroke="red" x1="1114.9084" x2="1114.9084" y1="0" y2="10" /><line stroke="yellow" x1="1144.4181" x2="1144.4181" y1="50" y2="100" /><line stroke="red" x1="1144.429" x2="1144.429" y1="0" y2="10" /><line stroke="yellow" x1="1173.9413" x2="1173.9413" y1="50" y2="100" /><line stroke="red" x1="1173.9504" x2="1173.9504" y1="0" y2="10" /><line stroke="blue" x1="1182.0848" x2="1182.0848" y1="40" y2="60" /><line stroke="orange" x1="1082.0848" x2="1082.0848" y1="0" y2="50" /><line stroke="yellow" x1="1082.0848" x2="1082.0848" y1="50" y2="100" /><line stroke="red" x1="1182.1112" x2="1182.1112" y1="0" y2="10" /><line stroke="yellow" x1="1111.608" x2="1111.608" y1="50" y2="100" /><line stroke="red" x1="1182.1848" x2="1182.1848" y1="0" y2="10" /><line stroke="yellow" x1="1141.1312" x2="1141.1312" y1="50" y2="100" /><line stroke="red" x1="1182.2548" x2="1182.2548" y1="0" y2="10" /><line stroke="yellow" x1="1170.6544" x2="1170.6544" y1="50" y2="100" /><line stroke="red" x1="1182.3467" x2="1182.3467" y1="0" y2="10" /><line stroke="yellow" x1="1200.1776" x2="1200.1776" y1="50" y2="100" /><line stroke="red" x1="1200.1919" x2="1200.1919" y1="0" y2="10" /><line stroke="yellow" x1="1229.7009" x2="1229.7009" y1="50" y2="100" /><line stroke="red" x1="1229.7218" x2="1229.7218" y1="0" y2="10" /><line stroke="yellow" x1="1259.224" x2="1259.224" y1="50" y2="100" /><line stroke="red" x1="1259.233" x2="1259.233" y1="0" y2="10" /><line stroke="yellow" x1="1288.7472" x2="1288.7472" y1="50" y2="100" /><line stroke="red" x1="1288.9401" x2="1288.9401" y1="0" y2="10" /><line stroke="blue" x1="1301.3851" x2="1301.3851" y1="40" y2="60" /><line stroke="orange" x1="1201.3851" x2="1201.3851" y1="0" y2="50" /><line stroke="yellow" x1="1201.3851" x2="1201.3851" y1="50" y2="100" /><line stroke="red" x1="1301.4106" x2="1301.4106" y1="0" y2="10" /><line stroke="yellow" x1="1230.9083" x2="1230.9083" y1="50" y2="100" /><line stroke="red" x1="1301.4913" x2="1301.4913" y1="0" y2="10" /><line stroke="yellow" x1="1260.4315" x2="1260.4315" y1="50" y2="100" /><line stroke="red" x1="1301.561" x2="1301.561" y1="0" y2="10" /><line stroke="yellow" x1="1289.9547" x2="1289.9547" y1="50" y2="100" /><line stroke="red" x1="1301.6299" x2="1301.6299" y1="0" y2="10" /><line stroke="yellow" x1="1319.4779" x2="1319.4779" y1="50" y2="100" /><line stroke="red" x1="1319.4914" x2="1319.4914" y1="0" y2="10" /><line stroke="yellow" x1="1349.0011" x2="1349.0011" y1="50" y2="100" /><line stroke="red" x1="1349.0125" x2="1349.0125" y1="0" y2="10" /><line stroke="yellow" x1="1378.5243" x2="1378.5243" y1="50" y2="100" /><line stroke="red" x1="1378.5317" x2="1378.5317" y1="0" y2="10" /><line stroke="yellow" x1="1408.0475" x2="1408.0475" y1="50" y2="100" /><line stroke="red" x1="1408.0659" x2="1408.0659" y1="0" y2="10" /><line stroke="blue" x1="1420.4625" x2="1420.4625" y1="40" y2="60" /><line stroke="orange" x1="1320.4625" x2="1320.4625" y1="0" y2="50" /><line stroke="yellow" x1="1320.4625" x2="1320.4625" y1="50" y2="100" /><line stroke="red" x1="1420.5017" x2="1420.5017" y1="0" y2="10" /><line stroke="yellow" x1="1349.9857" x2="1349.9857" y1="50" y2="100" /><line stroke="red" x1="1420.6188" x2="1420.6188" y1="0" y2="10" /><line stroke="yellow" x1="1379.5089" x2="1379.5089" y1="50" y2="100" /><line stroke="red" x1="1420.8374" x2="1420.8374" y1="0" y2="10" /><line stroke="yellow" x1="1409.0321" x2="1409.0321" y1="50" y2="100" /><line stroke="red" x1="1420.9086" x2="1420.9086" y1="0" y2="10" /><line stroke="yellow" x1="1438.5553" x2="1438.5553" y1="50" y2="100" /><line stroke="red" x1="1438.568" x2="1438.568" y1="0" y2="10" /><line stroke="yellow" x1="1468.0785" x2="1468.0785" y1="50" y2="100" /><line stroke="red" x1="1468.0914" x2="1468.0914" y1="0" y2="10" /><line stroke="yellow" x1="1497.6017" x2="1497.6017" y1="50" y2="100" /><line stroke="red" x1="1497.7619" x2="1497.7619" y1="0" y2="10" /><line stroke="yellow" x1="1527.1249" x2="1527.1249" y1="50" y2="100" /><line stroke="red" x1="1527.1356" x2="1527.1356" y1="0" y2="10" /><line stroke="blue" x1="1537.7369" x2="1537.7369" y1="40" y2="60" /><line stroke="orange" x1="1437.7369" x2="1437.7369" y1="0" y2="50" /><line stroke="yellow" x1="1437.7369" x2="1437.7369" y1="50" y2="100" /><line stroke="red" x1="1537.7559" x2="1537.7559" y1="0" y2="10" /><line stroke="yellow" x1="1467.2601" x2="1467.2601" y1="50" y2="100" /><line stroke="red" x1="1537.8645" x2="1537.8645" y1="0" y2="10" /><line stroke="yellow" x1="1496.7833" x2="1496.7833" y1="50" y2="100" /><line stroke="red" x1="1537.9295" x2="1537.9295" y1="0" y2="10" /><line stroke="yellow" x1="1526.3065" x2="1526.3065" y1="50" y2="100" /><line stroke="red" x1="1537.9946" x2="1537.9946" y1="0" y2="10" /><line stroke="yellow" x1="1555.8297" x2="1555.8297" y1="50" y2="100" /><line stroke="red" x1="1555.8419" x2="1555.8419" y1="0" y2="10" /><line stroke="yellow" x1="1585.3529" x2="1585.3529" y1="50" y2="100" /><line stroke="red" x1="1585.3612" x2="1585.3612" y1="0" y2="10" /><line stroke="yellow" x1="1614.8761" x2="1614.8761" y1="50" y2="100" /><line stroke="red" x1="1615.0764" x2="1615.0764" y1="0" y2="10" /><line stroke="yellow" x1="1644.3993" x2="1644.3993" y1="50" y2="100" /><line stroke="red" x1="1644.4112" x2="1644.4112" y1="0" y2="10" /><line stroke="blue" x1="1658.4835" x2="1658.4835" y1="40" y2="60" /><line stroke="orange" x1="1558.4835" x2="1558.4835" y1="0" y2="50" /><line stroke="yellow" x1="1558.4835" x2="1558.4835" y1="50" y2="100" /><line stroke="red" x1="1658.5087" x2="1658.5087" y1="0" y2="10" /><line stroke="yellow" x1="1588.0067" x2="1588.0067" y1="50" y2="100" /><line stroke="red" x1="1658.5823" x2="1658.5823" y1="0" y2="10" /><line stroke="yellow" x1="1617.5299" x2="1617.5299" y1="50" y2="100" /><line stroke="red" x1="1658.6485" x2="1658.6485" y1="0" y2="10" /><line stroke="yellow" x1="1647.0531" x2="1647.0531" y1="50" y2="100" /><line stroke="red" x1="1658.7133" x2="1658.7133" y1="0" y2="10" /><line stroke="yellow" x1="1676.5763" x2="1676.5763" y1="50" y2="100" /><line stroke="red" x1="1676.5906" x2="1676.5906" y1="0" y2="10" /><line stroke="yellow" x1="1706.0995" x2="1706.0995" y1="50" y2="100" /><line stroke="red" x1="1706.1112" x2="1706.1112" y1="0" y2="10" /><line stroke="yellow" x1="1735.6227" x2="1735.6227" y1="50" y2="100" /><line stroke="red" x1="1735.6938" x2="1735.6938" y1="0" y2="10" /><line stroke="yellow" x1="1765.1459" x2="1765.1459" y1="50" y2="100" /><line stroke="red" x1="1765.1787" x2="1765.1787" y1="0" y2="10" /><line stroke="blue" x1="1776.361" x2="1776.361" y1="40" y2="60" /><line stroke="orange" x1="1676.361" x2="1676.361" y1="0" y2="50" /><line stroke="yellow" x1="1676.361" x2="1676.361" y1="50" y2="100" /><line stroke="red" x1="1776.3844" x2="1776.3844" y1="0" y2="10" /><line stroke="yellow" x1="1705.8842" x2="1705.8842" y1="50" y2="100" /><line stroke="red" x1="1776.4549" x2="1776.4549" y1="0" y2="10" /><line stroke="yellow" x1="1735.4074" x2="1735.4074" y1="50" y2="100" /><line stroke="red" x1="1776.5218" x2="1776.5218" y1="0" y2="10" /><line stroke="yellow" x1="1764.9306" x2="1764.9306" y1="50" y2="100" /><line stroke="red" x1="1776.5866" x2="1776.5866" y1="0" y2="10" /><line stroke="yellow" x1="1794.4538" x2="1794.4538" y1="50" y2="100" /><line stroke="red" x1="1794.4671" x2="1794.4671" y1="0" y2="10" /><line stroke="yellow" x1="1823.977" x2="1823.977" y1="50" y2="100" /><line stroke="red" x1="1823.9895" x2="1823.9895" y1="0" y2="10" /><line stroke="yellow" x1="1853.5002" x2="1853.5002" y1="50" y2="100" /><line stroke="red" x1="1853.5136" x2="1853.5136" y1="0" y2="10" /><line stroke="yellow" x1="1883.0234" x2="1883.0234" y1="50" y2="100" /><line stroke="red" x1="1883.0313" x2="1883.0313" y1="0" y2="10" /><line stroke="yellow" x1="1912.5466" x2="1912.5466" y1="50" y2="100" /><line stroke="red" x1="1912.5636" x2="1912.5636" y1="0" y2="10" /><line stroke="yellow" x1="1942.0698" x2="1942.0698" y1="50" y2="100" /><line stroke="red" x1="1942.079" x2="1942.079" y1="0" y2="10" /><line stroke="blue" x1="1949.1845" x2="1949.1845" y1="40" y2="60" /><line stroke="orange" x1="1849.1845" x2="1849.1845" y1="0" y2="50" /><line stroke="yellow" x1="1849.1845" x2="1849.1845" y1="50" y2="100" /><line stroke="red" x1="1949.2169" x2="1949.2169" y1="0" y2="10" /><line stroke="yellow" x1="1878.7077" x2="1878.7077" y1="50" y2="100" /><line stroke="red" x1="1949.363" x2="1949.363" y1="0" y2="10" /><line stroke="yellow" x1="1908.2309" x2="1908.2309" y1="50" y2="100" /><line stroke="red" x1="1949.4575" x2="1949.4575" y1="0" y2="10" /><line stroke="yellow" x1="1937.7541" x2="1937.7541" y1="50" y2="100" /><line stroke="red" x1="1949.5287" x2="1949.5287" y1="0" y2="10" /><line stroke="yellow" x1="1967.2773" x2="1967.2773" y1="50" y2="100" /><line stroke="red" x1="1967.2894" x2="1967.2894" y1="0" y2="10" /><line stroke="yellow" x1="1996.8005" x2="1996.8005" y1="50" y2="100" /><line stroke="red" x1="1996.8075" x2="1996.8075" y1="0" y2="10" /><line stroke="blue" x1="2008.5272" x2="2008.5272" y1="40" y2="60" /><line stroke="orange" x1="1908.5272" x2="1908.5272" y1="0" y2="50" /><line stroke="yellow" x1="1908.5272" x2="1908.5272" y1="50" y2="100" /><line stroke="red" x1="2008.5466" x2="2008.5466" y1="0" y2="10" /><line stroke="yellow" x1="1938.0504" x2="1938.0504" y1="50" y2="100" /><line stroke="red" x1="2008.6167" x2="2008.6167" y1="0" y2="10" /><line stroke="yellow" x1="1967.5736" x2="1967.5736" y1="50" y2="100" /><line stroke="red" x1="2008.6819" x2="2008.6819" y1="0" y2="10" /><line stroke="yellow" x1="1997.0968" x2="1997.0968" y1="50" y2="100" /><line stroke="red" x1="2008.7466" x2="2008.7466" y1="0" y2="10" /><line stroke="yellow" x1="2026.62" x2="2026.62" y1="50" y2="100" /><line stroke="red" x1="2026.6306" x2="2026.6306" y1="0" y2="10" /><line stroke="yellow" x1="2056.1432" x2="2056.1432" y1="50" y2="100" /><line stroke="red" x1="2056.1584" x2="2056.1584" y1="0" y2="10" /><line stroke="yellow" x1="2085.6664" x2="2085.6664" y1="50" y2="100" /><line stroke="red" x1="2085.6737" x2="2085.6737" y1="0" y2="10" /><line stroke="yellow" x1="2115.1896" x2="2115.1896" y1="50" y2="100" /><line stroke="red" x1="2115.1999" x2="2115.1999" y1="0" y2="10" /><line stroke="yellow" x1="2144.7128" x2="2144.7128" y1="50" y2="100" /><line stroke="red" x1="2144.7235" x2="2144.7235" y1="0" y2="10" /><line stroke="yellow" x1="2174.236" x2="2174.236" y1="50" y2="100" /><line stroke="red" x1="2174.2461" x2="2174.2461" y1="0" y2="10" /><line stroke="yellow" x1="2203.7592" x2="2203.7592" y1="50" y2="100" /><line stroke="red" x1="2203.7736" x2="2203.7736" y1="0" y2="10" /><line stroke="yellow" x1="2233.2824" x2="2233.2824" y1="50" y2="100" /><line stroke="red" x1="2233.2925" x2="2233.2925" y1="0" y2="10" /><line stroke="yellow" x1="2262.8056" x2="2262.8056" y1="50" y2="100" /><line stroke="red" x1="2262.8397" x2="2262.8397" y1="0" y2="10" /><line stroke="yellow" x1="2292.3288" x2="2292.3288" y1="50" y2="100" /><line stroke="red" x1="2292.3416" x2="2292.3416" y1="0" y2="10" /></svg>