<?xml version="1.0" encoding="utf-8" ?>
<svg baseProfile="tiny" height="100%" version="1.2" width="100%" xmlns="http://www.w3.org/2000/svg" xmlns:ev="http://www.w3.org/2001/xml-events" xmlns:xlink="http://www.w3.org/1999/xlink"><defs /><line stroke="blue" x1="97.3558" x2="97.3558" y1="40" y2="60" /><line stroke="orange" x1="127.3558" x2="127.3558" y1="0" y2="50" /><line stroke="yellow" x1="127.3558" x2="127.3558" y1="50" y2="100" /><line stroke="red" x1="128.9489" x2="128.9489" y1="0" y2="10" /><line stroke="yellow" x1="157.3558" x2="157.3558" y1="50" y2="100" /><line stroke="red" x1="158.933" x2="158.933" y1="0" y2="10" /><line stroke="yellow" x1="187.3559" x2="187.3559" y1="50" y2="100" /><line stroke="red" x1="188.9246" x2="188.9246" y1="0" y2="10" /><line stroke="yellow" x1="217.3558" x2="217.3558" y1="50" y2="100" /><line stroke="red" x1="218.9382" x2="218.9382" y1="0" y2="10" /><line stroke="blue" x1="219.2944" x2="219.2944" y1="40" y2="60" /><line stroke="orange" x1="249.2944" x2="249.2944" y1="0" y2="50" /><line stroke="yellow" x1="249.2944" x2="249.2944" y1="50" y2="100" /><line stroke="red" x1="250.5695" x2="250.5695" y1="0" y2="10" /><line stroke="yellow" x1="279.2944" x2="279.2944" y1="50" y2="100" /><line stroke="red" x1="280.6354" x2="280.6354" y1="0" y2="10" /><line stroke="yellow" x1="309.2944" x2="309.2944" y1="50" y2="100" /><line stroke="red" x1="310.6056" x2="310.6056" y1="0" y2="10" /><line stroke="blue" x1="335.6399" x2="335.6399" y1="40" y2="60" /><line stroke="orange" x1="365.6399" x2="365.6399" y1="0" y2="50" /><line stroke="yellow" x1="365.6399" x2="365.6399" y1="50" y2="100" /><line stroke="red" x1="367.2739" x2="367.2739" y1="0" y2="10" /><line stroke="yellow" x1="395.6399" x2="395.6399" y1="50" y2="100" /><line stroke="red" x1="397.2881" x2="397.2881" y1="0" y2="10" /><line stroke="yellow" x1="425.6399" x2="425.6399" y1="50" y2="100" /><line stroke="red" x1="427.2689" x2="427.2689" y1="0" y2="10" /><line stroke="blue" x1="455.6727" x2="455.6727" y1="40" y2="60" /><line stroke="orange" x1="485.6727" x2="485.6727" y1="0" y2="50" /><line stroke="yellow" x1="485.6727" x2="485.6727" y1="50" y2="100" /><line stroke="red" x1="487.2443" x2="487.2443" y1="0" y2="10" /><line stroke="yellow" x1="515.6727" x2="515.6727" y1="50" y2="100" /><line stroke="red" x1="517.2747" x2="517.2747" y1="0" y2="10" /><line stroke="yellow" x1="545.6727" x2="545.6727" y1="50" y2="100" /><line stroke="red" x1="547.2846" x2="547.2846" y1="0" y2="10" /><line stroke="blue" x1="575.652" x2="575.652" y1="40" y2="60" /><line stroke="orange" x1="605.652" x2="605.652" y1="0" y2="50" /><line stroke="yellow" x1="605.652" x2="605.652" y1="50" y2="100" /><line stroke="red" x1="607.2487" x2="607.2487" y1="0" y2="10" /><line stroke="yellow" x1="635.652" x2="635.652" y1="50" y2="100" /><line stroke="red" x1="637.2242" x2="637.2242" y1="0" y2="10" /><line stroke="yellow" x1="665.652" x2="665.652" y1="50" y2="100" /><line stroke="red" x1="667.2605" x2="667.2605" y1="0" y2="10" /><line stroke="yellow" x1="695.652" x2="695.652" y1="50" y2="100" /><line stroke="red" x1="697.2417" x2="697.2417" y1="0" y2="10" /><line stroke="blue" x1="705.6698" x2="705.6698" y1="40" y2="60" /><line stroke="orange" x1="735.6698" x2="735.6698" y1="0" y2="50" /><line stroke="yellow" x1="735.6698" x2="735.6698" y1="50" y2="100" /><line stroke="red" x1="737.2268" x2="737.2268" y1="0" y2="10" /><line stroke="yellow" x1="765.6698" x2="765.6698" y1="50" y2="100" /><line stroke="red" x1="767.2597" x2="767.2597" y1="0" y2="10" /><line stroke="yellow" x1="795.6698" x2="795.6698" y1="50" y2="100" /><line stroke="red" x1="797.278" x2="797.278" y1="0" y2="10" /><line stroke="blue" x1="817.308" x2="817.308" y1="40" y2="60" /><line stroke="orange" x1="847.308" x2="847.308" y1="0" y2="50" /><line stroke="yellow" x1="847.308" x2="847.308" y1="50" y2="100" /><line stroke="red" x1="848.92" x2="848.92" y1="0" y2="10" /><line stroke="yellow" x1="877.308" x2="877.308" y1="50" y2="100" /><line stroke="red" x1="878.9122" x2="878.9122" y1="0" y2="10" /><line stroke="yellow" x1="907.308" x2="907.308" y1="50" y2="100" /><line stroke="red" x1="908.9161" x2="908.9161" y1="0" y2="10" /><line stroke="blue" x1="937.2671" x2="937.2671" y1="40" y2="60" /><line stroke="orange" x1="967.2671" x2="967.2671" y1="0" y2="50" /><line stroke="yellow" x1="967.2671" x2="967.2671" y1="50" y2="100" /><line stroke="red" x1="968.9136" x2="968.9136" y1="0" y2="10" /><line stroke="yellow" x1="997.2671" x2="997.2671" y1="50" y2="100" /><line stroke="red" x1="998.9171" x2="998.9171" y1="0" y2="10" /><line stroke="yellow" x1="1027.2671" x2="1027.2671" y1="50" y2="100" /><line stroke="red" x1="1028.9138" x2="1028.9138" y1="0" y2="10" /><line stroke="yellow" x1="1057.2671" x2="1057.2671" y1="50" y2="100" /><line stroke="red" x1="1058.913" x2="1058.913" y1="0" y2="10" /><line stroke="blue" x1="1059.0962" x2="1059.0962" y1="40" y2="60" /><line stroke="orange" x1="1089.0962" x2="1089.0962" y1="0" y2="50" /><line stroke="yellow" x1="1089.0962" x2="1089.0962" y1="50" y2="100" /><line stroke="red" x1="1090.5855" x2="1090.5855" y1="0" y2="10" /><line stroke="yellow" x1="1119.0962" x2="1119.0962" y1="50" y2="100" /><line stroke="red" x1="1120.5724" x2="1120.5724" y1="0" y2="10" /><line stroke="yellow" x1="1149.0962" x2="1149.0962" y1="50" y2="100" /><line stroke="red" x1="1150.5731" x2="1150.5731" y1="0" y2="10" /><line stroke="blue" x1="1177.2964" x2="1177.2964" y1="40" y2="60" /><line stroke="orange" x1="1207.2964" x2="1207.2964" y1="0" y2="50" /><line stroke="yellow" x1="1207.2964" x2="1207.2964" y1="50" y2="100" /><line stroke="red" x1="1208.9265" x2="1208.9265" y1="0" y2="10" /><line stroke="yellow" x1="1237.2964" x2="1237.2964" y1="50" y2="100" /><line stroke="red" x1="1238.921" x2="1238.921" y1="0" y2="10" /><line stroke="yellow" x1="1267.2964" x2="1267.2964" y1="50" y2="100" /><line stroke="red" x1="1268.9099" x2="1268.9099" y1="0" y2="10" /><line stroke="blue" x1="1297.3194" x2="1297.3194" y1="40" y2="60" /><line stroke="orange" x1="1327.3194" x2="1327.3194" y1="0" y2="50" /><line stroke="yellow" x1="1327.3194" x2="1327.3194" y1="50" y2="100" /><line stroke="red" x1="1328.9026" x2="1328.9026" y1="0" y2="10" /><line stroke="yellow" x1="1357.3195" x2="1357.3195" y1="50" y2="100" /><line stroke="red" x1="1358.9063" x2="1358.9063" y1="0" y2="10" /><line stroke="yellow" x1="1387.3194" x2="1387.3194" y1="50" y2="100" /><line stroke="red" x1="1388.9256" x2="1388.9256" y1="0" y2="10" /><line stroke="blue" x1="1417.3875" x2="1417.3875" y1="40" y2="60" /><line stroke="orange" x1="1447.3875" x2="1447.3875" y1="0" y2="50" /><line stroke="yellow" x1="1447.3875" x2="1447.3875" y1="50" y2="100" /><line stroke="red" x1="1448.8938" x2="1448.8938" y1="0" y2="10" /><line stroke="yellow" x1="1477.3875" x2="1477.3875" y1="50" y2="100" /><line stroke="red" x1="1478.8851" x2="1478.8851" y1="0" y2="10" /><line stroke="yellow" x1="1507.3875" x2="1507.3875" y1="50" y2="100" /><line stroke="red" x1="1508.8891" x2="1508.8891" y1="0" y2="10" /><line stroke="blue" x1="1537.2972" x2="1537.2972" y1="40" y2="60" /><line stroke="orange" x1="1567.2972" x2="1567.2972" y1="0" y2="50" /></svg>