<?xml version="1.0" encoding="utf-8" ?>
<svg baseProfile="tiny" height="100%" version="1.2" width="100%" xmlns="http://www.w3.org/2000/svg" xmlns:ev="http://www.w3.org/2001/xml-events" xmlns:xlink="http://www.w3.org/1999/xlink"><defs /><line stroke="green" x1="30.7666" x2="30.7666" y1="0" y2="10" /><text fill="black" font-size="6" x="30.7666301727" y="0">tick-future</text><circle cx="50.6938" cy="0" fill="yellow" opacity="0.8" r="6" /><text fill="black" font-size="6" x="50.6937980652" y="0">tick-time</text><line stroke="green" x1="50.6975" x2="50.6975" y1="12" y2="22" /><text fill="black" font-size="6" x="50.697517395" y="12">tick-future</text><circle cx="70.6938" cy="10" fill="yellow" opacity="0.8" r="6" /><text fill="black" font-size="6" x="70.6938266754" y="10">tick-time</text><line stroke="green" x1="70.7393" x2="70.7393" y1="24" y2="34" /><text fill="black" font-size="6" x="70.7393169403" y="24">tick-future</text><circle cx="90.6938" cy="20" fill="yellow" opacity="0.8" r="6" /><text fill="black" font-size="6" x="90.6938076019" y="20">tick-time</text><line stroke="green" x1="90.7003" x2="90.7003" y1="36" y2="46" /><text fill="black" font-size="6" x="90.700340271" y="36">tick-future</text><circle cx="110.6938" cy="30" fill="yellow" opacity="0.8" r="6" /><text fill="black" font-size="6" x="110.693788528" y="30">tick-time</text><line stroke="green" x1="110.6989" x2="110.6989" y1="48" y2="58" /><text fill="black" font-size="6" x="110.698890686" y="48">tick-future</text><circle cx="130.6938" cy="40" fill="yellow" opacity="0.8" r="6" /><text fill="black" font-size="6" x="130.693817139" y="40">tick-time</text><line stroke="green" x1="130.6996" x2="130.6996" y1="60" y2="70" /><text fill="black" font-size="6" x="130.699586868" y="60">tick-future</text><circle cx="150.6938" cy="50" fill="yellow" opacity="0.8" r="6" /><text fill="black" font-size="6" x="150.693798065" y="50">tick-time</text><line stroke="green" x1="150.7025" x2="150.7025" y1="72" y2="82" /><text fill="black" font-size="6" x="150.702524185" y="72">tick-future</text><circle cx="170.6938" cy="60" fill="yellow" opacity="0.8" r="6" /><text fill="black" font-size="6" x="170.693826675" y="60">tick-time</text><line stroke="green" x1="170.7008" x2="170.7008" y1="84" y2="94" /><text fill="black" font-size="6" x="170.700836182" y="84">tick-future</text><circle cx="190.6938" cy="70" fill="yellow" opacity="0.8" r="6" /><text fill="black" font-size="6" x="190.693807602" y="70">tick-time</text><line stroke="green" x1="190.8491" x2="190.8491" y1="96" y2="106" /><text fill="black" font-size="6" x="190.849113464" y="96">tick-future</text><circle cx="210.6938" cy="80" fill="yellow" opacity="0.8" r="6" /><text fill="black" font-size="6" x="210.693788528" y="80">tick-time</text><line stroke="green" x1="210.7007" x2="210.7007" y1="8" y2="18" /><text fill="black" font-size="6" x="210.700702667" y="8">tick-future</text><circle cx="230.6938" cy="90" fill="yellow" opacity="0.8" r="6" /><text fill="black" font-size="6" x="230.693817139" y="90">tick-time</text><line stroke="green" x1="230.6973" x2="230.6973" y1="20" y2="30" /><text fill="black" font-size="6" x="230.69729805" y="20">tick-future</text><circle cx="250.6938" cy="0" fill="yellow" opacity="0.8" r="6" /><text fill="black" font-size="6" x="250.693798065" y="0">tick-time</text><line stroke="green" x1="250.6985" x2="250.6985" y1="32" y2="42" /><text fill="black" font-size="6" x="250.698518753" y="32">tick-future</text><circle cx="270.6938" cy="10" fill="yellow" opacity="0.8" r="6" /><text fill="black" font-size="6" x="270.693826675" y="10">tick-time</text><line stroke="green" x1="270.7044" x2="270.7044" y1="44" y2="54" /><text fill="black" font-size="6" x="270.70441246" y="44">tick-future</text><circle cx="290.6938" cy="20" fill="yellow" opacity="0.8" r="6" /><text fill="black" font-size="6" x="290.693807602" y="20">tick-time</text><line stroke="green" x1="290.7892" x2="290.7892" y1="56" y2="66" /><text fill="black" font-size="6" x="290.789222717" y="56">tick-future</text><circle cx="310.6938" cy="30" fill="yellow" opacity="0.8" r="6" /><text fill="black" font-size="6" x="310.693788528" y="30">tick-time</text><line stroke="green" x1="310.7045" x2="310.7045" y1="68" y2="78" /><text fill="black" font-size="6" x="310.704517365" y="68">tick-future</text><circle cx="330.6938" cy="40" fill="yellow" opacity="0.8" r="6" /><text fill="black" font-size="6" x="330.693817139" y="40">tick-time</text><line stroke="green" x1="330.6967" x2="330.6967" y1="80" y2="90" /><text fill="black" font-size="6" x="330.696725845" y="80">tick-future</text><circle cx="350.6938" cy="50" fill="yellow" opacity="0.8" r="6" /><text fill="black" font-size="6" x="350.693798065" y="50">tick-time</text><line stroke="green" x1="350.7235" x2="350.7235" y1="92" y2="102" /><text fill="black" font-size="6" x="350.72350502" y="92">tick-future</text><circle cx="370.6938" cy="60" fill="yellow" opacity="0.8" r="6" /><text fill="black" font-size="6" x="370.693826675" y="60">tick-time</text><line stroke="green" x1="370.698" x2="370.698" y1="4" y2="14" /><text fill="black" font-size="6" x="370.698022842" y="4">tick-future</text><circle cx="390.6938" cy="70" fill="yellow" opacity="0.8" r="6" /><text fill="black" font-size="6" x="390.693807602" y="70">tick-time</text><line stroke="green" x1="390.6998" x2="390.6998" y1="16" y2="26" /><text fill="black" font-size="6" x="390.69981575" y="16">tick-future</text><circle cx="410.6938" cy="80" fill="yellow" opacity="0.8" r="6" /><text fill="black" font-size="6" x="410.693788528" y="80">tick-time</text><line stroke="green" x1="410.7034" x2="410.7034" y1="28" y2="38" /><text fill="black" font-size="6" x="410.703420639" y="28">tick-future</text><circle cx="430.6938" cy="90" fill="yellow" opacity="0.8" r="6" /><text fill="black" font-size="6" x="430.693817139" y="90">tick-time</text><line stroke="green" x1="430.7024" x2="430.7024" y1="40" y2="50" /><text fill="black" font-size="6" x="430.702400208" y="40">tick-future</text><circle cx="450.6938" cy="0" fill="yellow" opacity="0.8" r="6" /><text fill="black" font-size="6" x="450.693798065" y="0">tick-time</text><line stroke="green" x1="450.6944" x2="450.6944" y1="52" y2="62" /><text fill="black" font-size="6" x="450.694417953" y="52">tick-future</text><circle cx="470.6938" cy="10" fill="yellow" opacity="0.8" r="6" /><text fill="black" font-size="6" x="470.693826675" y="10">tick-time</text><line stroke="green" x1="470.7019" x2="470.7019" y1="64" y2="74" /><text fill="black" font-size="6" x="470.701932907" y="64">tick-future</text><circle cx="490.6938" cy="20" fill="yellow" opacity="0.8" r="6" /><text fill="black" font-size="6" x="490.693807602" y="20">tick-time</text><line stroke="green" x1="490.701" x2="490.701" y1="76" y2="86" /><text fill="black" font-size="6" x="490.701007843" y="76">tick-future</text><circle cx="510.6938" cy="30" fill="yellow" opacity="0.8" r="6" /><text fill="black" font-size="6" x="510.693788528" y="30">tick-time</text><line stroke="green" x1="510.6987" x2="510.6987" y1="88" y2="98" /><text fill="black" font-size="6" x="510.698699951" y="88">tick-future</text><circle cx="530.6938" cy="40" fill="yellow" opacity="0.8" r="6" /><text fill="black" font-size="6" x="530.693817139" y="40">tick-time</text><line stroke="green" x1="530.703" x2="530.703" y1="0" y2="10" /><text fill="black" font-size="6" x="530.703020096" y="0">tick-future</text><circle cx="550.6938" cy="50" fill="yellow" opacity="0.8" r="6" /><text fill="black" font-size="6" x="550.693798065" y="50">tick-time</text><line stroke="green" x1="550.6985" x2="550.6985" y1="12" y2="22" /><text fill="black" font-size="6" x="550.698518753" y="12">tick-future</text><line stroke="blue" x1="568.1107" x2="568.1107" y1="40" y2="60" /><text fill="black" font-size="6" x="568.110704422" y="40">sync</text><line stroke="orange" x1="568.1107" x2="568.1107" y1="0" y2="20" /><text fill="black" font-size="6" x="568.110704422" y="0">setting</text><circle cx="568.1107" cy="60" fill="yellow" opacity="0.8" r="6" /><text fill="black" font-size="6" x="568.110704422" y="60">tick-time</text><line stroke="green" x1="686.2212" x2="686.2212" y1="24" y2="34" /><text fill="black" font-size="6" x="686.221218109" y="24">tick-future</text><circle cx="597.6339" cy="70" fill="yellow" opacity="0.8" r="6" /><text fill="black" font-size="6" x="597.633934021" y="70">tick-time</text><line stroke="green" x1="686.3703" x2="686.3703" y1="36" y2="46" /><text fill="black" font-size="6" x="686.370325089" y="36">tick-future</text><circle cx="627.1571" cy="80" fill="yellow" opacity="0.8" r="6" /><text fill="black" font-size="6" x="627.157115936" y="80">tick-time</text><line stroke="green" x1="686.4983" x2="686.4983" y1="48" y2="58" /><text fill="black" font-size="6" x="686.498308182" y="48">tick-future</text><circle cx="656.6803" cy="90" fill="yellow" opacity="0.8" r="6" /><text fill="black" font-size="6" x="656.680345535" y="90">tick-time</text><line stroke="green" x1="686.5997" x2="686.5997" y1="60" y2="70" /><text fill="black" font-size="6" x="686.599731445" y="60">tick-future</text><circle cx="686.2035" cy="0" fill="yellow" opacity="0.8" r="6" /><text fill="black" font-size="6" x="686.203527451" y="0">tick-time</text><line stroke="green" x1="686.8785" x2="686.8785" y1="72" y2="82" /><text fill="black" font-size="6" x="686.878538132" y="72">tick-future</text><circle cx="715.7267" cy="10" fill="yellow" opacity="0.8" r="6" /><text fill="black" font-size="6" x="715.726709366" y="10">tick-time</text><line stroke="green" x1="715.73" x2="715.73" y1="84" y2="94" /><text fill="black" font-size="6" x="715.729951859" y="84">tick-future</text><circle cx="745.2499" cy="20" fill="yellow" opacity="0.8" r="6" /><text fill="black" font-size="6" x="745.249938965" y="20">tick-time</text><line stroke="green" x1="745.2505" x2="745.2505" y1="96" y2="106" /><text fill="black" font-size="6" x="745.250511169" y="96">tick-future</text><circle cx="774.7731" cy="30" fill="yellow" opacity="0.8" r="6" /><text fill="black" font-size="6" x="774.77312088" y="30">tick-time</text><line stroke="green" x1="774.7746" x2="774.7746" y1="8" y2="18" /><text fill="black" font-size="6" x="774.774599075" y="8">tick-future</text><line stroke="blue" x1="685.6053" x2="685.6053" y1="40" y2="60" /><text fill="black" font-size="6" x="685.605335236" y="40">sync</text><line stroke="orange" x1="803.6981" x2="803.6981" y1="5" y2="25" /><text fill="black" font-size="6" x="803.69811058" y="5">setting</text><circle cx="803.6981" cy="40" fill="yellow" opacity="0.8" r="6" /><text fill="black" font-size="6" x="803.69811058" y="40">tick-time</text><line stroke="green" x1="803.7278" x2="803.7278" y1="20" y2="30" /><text fill="black" font-size="6" x="803.727817535" y="20">tick-future</text><circle cx="833.2213" cy="50" fill="yellow" opacity="0.8" r="6" /><text fill="black" font-size="6" x="833.221340179" y="50">tick-time</text><line stroke="green" x1="833.2267" x2="833.2267" y1="32" y2="42" /><text fill="black" font-size="6" x="833.226728439" y="32">tick-future</text><circle cx="862.7445" cy="60" fill="yellow" opacity="0.8" r="6" /><text fill="black" font-size="6" x="862.744522095" y="60">tick-time</text><line stroke="green" x1="862.7499" x2="862.7499" y1="44" y2="54" /><text fill="black" font-size="6" x="862.749910355" y="44">tick-future</text><circle cx="892.2678" cy="70" fill="yellow" opacity="0.8" r="6" /><text fill="black" font-size="6" x="892.267751694" y="70">tick-time</text><line stroke="green" x1="892.2717" x2="892.2717" y1="56" y2="66" /><text fill="black" font-size="6" x="892.271709442" y="56">tick-future</text><circle cx="921.7909" cy="80" fill="yellow" opacity="0.8" r="6" /><text fill="black" font-size="6" x="921.790933609" y="80">tick-time</text><line stroke="green" x1="921.8227" x2="921.8227" y1="68" y2="78" /><text fill="black" font-size="6" x="921.822690964" y="68">tick-future</text><line stroke="blue" x1="808.5604" x2="808.5604" y1="40" y2="60" /><text fill="black" font-size="6" x="808.560419083" y="40">sync</text><line stroke="orange" x1="956.1764" x2="956.1764" y1="10" y2="30" /><text fill="black" font-size="6" x="956.176424026" y="10">setting</text><circle cx="956.1764" cy="90" fill="yellow" opacity="0.8" r="6" /><text fill="black" font-size="6" x="956.176424026" y="90">tick-time</text><line stroke="green" x1="956.1798" x2="956.1798" y1="80" y2="90" /><text fill="black" font-size="6" x="956.17980957" y="80">tick-future</text><circle cx="985.6996" cy="0" fill="yellow" opacity="0.8" r="6" /><text fill="black" font-size="6" x="985.699605942" y="0">tick-time</text><line stroke="green" x1="985.7311" x2="985.7311" y1="92" y2="102" /><text fill="black" font-size="6" x="985.731124878" y="92">tick-future</text><circle cx="1015.2228" cy="10" fill="yellow" opacity="0.8" r="6" /><text fill="black" font-size="6" x="1015.22278786" y="10">tick-time</text><line stroke="green" x1="1015.2246" x2="1015.2246" y1="4" y2="14" /><text fill="black" font-size="6" x="1015.22455215" y="4">tick-future</text><line stroke="blue" x1="923.0756" x2="923.0756" y1="40" y2="60" /><text fill="black" font-size="6" x="923.075628281" y="40">sync</text><line stroke="orange" x1="1041.1684" x2="1041.1684" y1="15" y2="35" /><text fill="black" font-size="6" x="1041.16840363" y="15">setting</text><circle cx="1041.1684" cy="20" fill="yellow" opacity="0.8" r="6" /><text fill="black" font-size="6" x="1041.16840363" y="20">tick-time</text><line stroke="green" x1="1041.1826" x2="1041.1826" y1="16" y2="26" /><text fill="black" font-size="6" x="1041.18261337" y="16">tick-future</text><circle cx="1070.6916" cy="30" fill="yellow" opacity="0.8" r="6" /><text fill="black" font-size="6" x="1070.69158554" y="30">tick-time</text><line stroke="green" x1="1070.6962" x2="1070.6962" y1="28" y2="38" /><text fill="black" font-size="6" x="1070.69621086" y="28">tick-future</text><circle cx="1100.2148" cy="40" fill="yellow" opacity="0.8" r="6" /><text fill="black" font-size="6" x="1100.21481514" y="40">tick-time</text><line stroke="green" x1="1100.216" x2="1100.216" y1="40" y2="50" /><text fill="black" font-size="6" x="1100.21600723" y="40">tick-future</text><circle cx="1129.738" cy="50" fill="yellow" opacity="0.8" r="6" /><text fill="black" font-size="6" x="1129.73799706" y="50">tick-time</text><line stroke="green" x1="1129.7452" x2="1129.7452" y1="52" y2="62" /><text fill="black" font-size="6" x="1129.7451973" y="52">tick-future</text><line stroke="blue" x1="1040.2349" x2="1040.2349" y1="40" y2="60" /><text fill="black" font-size="6" x="1040.23489952" y="40">sync</text><line stroke="orange" x1="1158.3277" x2="1158.3277" y1="20" y2="40" /><text fill="black" font-size="6" x="1158.32772255" y="20">setting</text><circle cx="1158.3277" cy="60" fill="yellow" opacity="0.8" r="6" /><text fill="black" font-size="6" x="1158.32772255" y="60">tick-time</text><line stroke="green" x1="1158.3416" x2="1158.3416" y1="64" y2="74" /><text fill="black" font-size="6" x="1158.34159851" y="64">tick-future</text><circle cx="1187.8509" cy="70" fill="yellow" opacity="0.8" r="6" /><text fill="black" font-size="6" x="1187.85090446" y="70">tick-time</text><line stroke="green" x1="1187.852" x2="1187.852" y1="76" y2="86" /><text fill="black" font-size="6" x="1187.85200119" y="76">tick-future</text><circle cx="1217.3741" cy="80" fill="yellow" opacity="0.8" r="6" /><text fill="black" font-size="6" x="1217.37413406" y="80">tick-time</text><line stroke="green" x1="1217.3786" x2="1217.3786" y1="88" y2="98" /><text fill="black" font-size="6" x="1217.37861633" y="88">tick-future</text><circle cx="1246.8973" cy="90" fill="yellow" opacity="0.8" r="6" /><text fill="black" font-size="6" x="1246.89731598" y="90">tick-time</text><line stroke="green" x1="1246.9058" x2="1246.9058" y1="0" y2="10" /><text fill="black" font-size="6" x="1246.90580368" y="0">tick-future</text><circle cx="1276.4205" cy="0" fill="yellow" opacity="0.8" r="6" /><text fill="black" font-size="6" x="1276.42049789" y="0">tick-time</text><line stroke="green" x1="1276.4282" x2="1276.4282" y1="12" y2="22" /><text fill="black" font-size="6" x="1276.42822266" y="12">tick-future</text><line stroke="blue" x1="1165.9931" x2="1165.9931" y1="40" y2="60" /><text fill="black" font-size="6" x="1165.99311829" y="40">sync</text><line stroke="orange" x1="1313.6091" x2="1313.6091" y1="25" y2="45" /><text fill="black" font-size="6" x="1313.60912323" y="25">setting</text><circle cx="1313.6091" cy="10" fill="yellow" opacity="0.8" r="6" /><text fill="black" font-size="6" x="1313.60912323" y="10">tick-time</text><line stroke="green" x1="1313.613" x2="1313.613" y1="24" y2="34" /><text fill="black" font-size="6" x="1313.61303329" y="24">tick-future</text><circle cx="1343.1323" cy="20" fill="yellow" opacity="0.8" r="6" /><text fill="black" font-size="6" x="1343.13230515" y="20">tick-time</text><line stroke="green" x1="1343.1374" x2="1343.1374" y1="36" y2="46" /><text fill="black" font-size="6" x="1343.1374073" y="36">tick-future</text><circle cx="1372.6555" cy="30" fill="yellow" opacity="0.8" r="6" /><text fill="black" font-size="6" x="1372.65553474" y="30">tick-time</text><line stroke="green" x1="1372.6604" x2="1372.6604" y1="48" y2="58" /><text fill="black" font-size="6" x="1372.66039848" y="48">tick-future</text><line stroke="blue" x1="1279.557" x2="1279.557" y1="40" y2="60" /><text fill="black" font-size="6" x="1279.55703735" y="40">sync</text><line stroke="orange" x1="1397.6498" x2="1397.6498" y1="30" y2="50" /><text fill="black" font-size="6" x="1397.6498127" y="30">setting</text><circle cx="1397.6498" cy="40" fill="yellow" opacity="0.8" r="6" /><text fill="black" font-size="6" x="1397.6498127" y="40">tick-time</text><line stroke="green" x1="1397.6655" x2="1397.6655" y1="60" y2="70" /><text fill="black" font-size="6" x="1397.66554832" y="60">tick-future</text><circle cx="1427.173" cy="50" fill="yellow" opacity="0.8" r="6" /><text fill="black" font-size="6" x="1427.1730423" y="50">tick-time</text><line stroke="green" x1="1427.2125" x2="1427.2125" y1="72" y2="82" /><text fill="black" font-size="6" x="1427.21252441" y="72">tick-future</text><circle cx="1456.6962" cy="60" fill="yellow" opacity="0.8" r="6" /><text fill="black" font-size="6" x="1456.69622421" y="60">tick-time</text><line stroke="green" x1="1456.6967" x2="1456.6967" y1="84" y2="94" /><text fill="black" font-size="6" x="1456.69670105" y="84">tick-future</text><circle cx="1486.2194" cy="70" fill="yellow" opacity="0.8" r="6" /><text fill="black" font-size="6" x="1486.21940613" y="70">tick-time</text><line stroke="green" x1="1486.2251" x2="1486.2251" y1="96" y2="106" /><text fill="black" font-size="6" x="1486.22512817" y="96">tick-future</text><line stroke="blue" x1="1395.7604" x2="1395.7604" y1="40" y2="60" /><text fill="black" font-size="6" x="1395.76044083" y="40">sync</text><line stroke="orange" x1="1513.8532" x2="1513.8532" y1="35" y2="55" /><text fill="black" font-size="6" x="1513.85321617" y="35">setting</text><circle cx="1513.8532" cy="80" fill="yellow" opacity="0.8" r="6" /><text fill="black" font-size="6" x="1513.85321617" y="80">tick-time</text><line stroke="green" x1="1513.8666" x2="1513.8666" y1="8" y2="18" /><text fill="black" font-size="6" x="1513.8666153" y="8">tick-future</text><circle cx="1543.3764" cy="90" fill="yellow" opacity="0.8" r="6" /><text fill="black" font-size="6" x="1543.37644577" y="90">tick-time</text><line stroke="green" x1="1543.378" x2="1543.378" y1="20" y2="30" /><text fill="black" font-size="6" x="1543.37801933" y="20">tick-future</text><circle cx="1572.8996" cy="0" fill="yellow" opacity="0.8" r="6" /><text fill="black" font-size="6" x="1572.89962769" y="0">tick-time</text><line stroke="green" x1="1572.9051" x2="1572.9051" y1="32" y2="42" /><text fill="black" font-size="6" x="1572.90511131" y="32">tick-future</text><circle cx="1602.4229" cy="10" fill="yellow" opacity="0.8" r="6" /><text fill="black" font-size="6" x="1602.42285728" y="10">tick-time</text><line stroke="green" x1="1602.4311" x2="1602.4311" y1="44" y2="54" /><text fill="black" font-size="6" x="1602.43110657" y="44">tick-future</text><circle cx="1631.946" cy="20" fill="yellow" opacity="0.8" r="6" /><text fill="black" font-size="6" x="1631.9460392" y="20">tick-time</text><line stroke="green" x1="1631.9537" x2="1631.9537" y1="56" y2="66" /><text fill="black" font-size="6" x="1631.95371628" y="56">tick-future</text><line stroke="blue" x1="1514.6776" x2="1514.6776" y1="40" y2="60" /><text fill="black" font-size="6" x="1514.67761993" y="40">sync</text><line stroke="orange" x1="1662.2936" x2="1662.2936" y1="40" y2="60" /><text fill="black" font-size="6" x="1662.29362488" y="40">setting</text><circle cx="1662.2936" cy="30" fill="yellow" opacity="0.8" r="6" /><text fill="black" font-size="6" x="1662.29362488" y="30">tick-time</text><line stroke="green" x1="1662.303" x2="1662.303" y1="68" y2="78" /><text fill="black" font-size="6" x="1662.30301857" y="68">tick-future</text><circle cx="1691.8168" cy="40" fill="yellow" opacity="0.8" r="6" /><text fill="black" font-size="6" x="1691.81680679" y="40">tick-time</text><line stroke="green" x1="1691.8649" x2="1691.8649" y1="80" y2="90" /><text fill="black" font-size="6" x="1691.86491966" y="80">tick-future</text><circle cx="1721.34" cy="50" fill="yellow" opacity="0.8" r="6" /><text fill="black" font-size="6" x="1721.33998871" y="50">tick-time</text><line stroke="green" x1="1721.3438" x2="1721.3438" y1="92" y2="102" /><text fill="black" font-size="6" x="1721.34380341" y="92">tick-future</text><line stroke="blue" x1="1632.6179" x2="1632.6179" y1="40" y2="60" /><text fill="black" font-size="6" x="1632.61790276" y="40">sync</text><line stroke="orange" x1="1750.7107" x2="1750.7107" y1="45" y2="65" /><text fill="black" font-size="6" x="1750.71072578" y="45">setting</text><circle cx="1750.7107" cy="60" fill="yellow" opacity="0.8" r="6" /><text fill="black" font-size="6" x="1750.71072578" y="60">tick-time</text><line stroke="green" x1="1750.7311" x2="1750.7311" y1="4" y2="14" /><text fill="black" font-size="6" x="1750.73113441" y="4">tick-future</text><circle cx="1780.2339" cy="70" fill="yellow" opacity="0.8" r="6" /><text fill="black" font-size="6" x="1780.2339077" y="70">tick-time</text><line stroke="green" x1="1780.2385" x2="1780.2385" y1="16" y2="26" /><text fill="black" font-size="6" x="1780.23853302" y="16">tick-future</text><circle cx="1809.7571" cy="80" fill="yellow" opacity="0.8" r="6" /><text fill="black" font-size="6" x="1809.75708961" y="80">tick-time</text><line stroke="green" x1="1809.7626" x2="1809.7626" y1="28" y2="38" /><text fill="black" font-size="6" x="1809.76262093" y="28">tick-future</text><circle cx="1839.2803" cy="90" fill="yellow" opacity="0.8" r="6" /><text fill="black" font-size="6" x="1839.28031921" y="90">tick-time</text><line stroke="green" x1="1839.2847" x2="1839.2847" y1="40" y2="50" /><text fill="black" font-size="6" x="1839.28470612" y="40">tick-future</text><circle cx="1868.8035" cy="0" fill="yellow" opacity="0.8" r="6" /><text fill="black" font-size="6" x="1868.80350113" y="0">tick-time</text><line stroke="green" x1="1868.809" x2="1868.809" y1="52" y2="62" /><text fill="black" font-size="6" x="1868.80903244" y="52">tick-future</text><line stroke="blue" x1="1752.5103" x2="1752.5103" y1="40" y2="60" /><text fill="black" font-size="6" x="1752.51030922" y="40">sync</text><line stroke="orange" x1="1900.1263" x2="1900.1263" y1="50" y2="70" /><text fill="black" font-size="6" x="1900.12631416" y="50">setting</text><circle cx="1900.1263" cy="10" fill="yellow" opacity="0.8" r="6" /><text fill="black" font-size="6" x="1900.12631416" y="10">tick-time</text><line stroke="green" x1="1900.1353" x2="1900.1353" y1="64" y2="74" /><text fill="black" font-size="6" x="1900.13532639" y="64">tick-future</text><circle cx="1929.6495" cy="20" fill="yellow" opacity="0.8" r="6" /><text fill="black" font-size="6" x="1929.64949608" y="20">tick-time</text><line stroke="green" x1="1929.6501" x2="1929.6501" y1="76" y2="86" /><text fill="black" font-size="6" x="1929.65011597" y="76">tick-future</text><circle cx="1959.1727" cy="30" fill="yellow" opacity="0.8" r="6" /><text fill="black" font-size="6" x="1959.17272568" y="30">tick-time</text><line stroke="green" x1="1959.1732" x2="1959.1732" y1="88" y2="98" /><text fill="black" font-size="6" x="1959.17320251" y="88">tick-future</text><line stroke="blue" x1="1869.3804" x2="1869.3804" y1="40" y2="60" /><text fill="black" font-size="6" x="1869.38042641" y="40">sync</text><line stroke="orange" x1="1987.4732" x2="1987.4732" y1="55" y2="75" /><text fill="black" font-size="6" x="1987.47320175" y="55">setting</text><circle cx="1987.4732" cy="40" fill="yellow" opacity="0.8" r="6" /><text fill="black" font-size="6" x="1987.47320175" y="40">tick-time</text><line stroke="green" x1="1987.4848" x2="1987.4848" y1="0" y2="10" /><text fill="black" font-size="6" x="1987.48483658" y="0">tick-future</text><circle cx="2016.9964" cy="50" fill="yellow" opacity="0.8" r="6" /><text fill="black" font-size="6" x="2016.99643135" y="50">tick-time</text><line stroke="green" x1="2017.0044" x2="2017.0044" y1="12" y2="22" /><text fill="black" font-size="6" x="2017.00444221" y="12">tick-future</text><circle cx="2046.5196" cy="60" fill="yellow" opacity="0.8" r="6" /><text fill="black" font-size="6" x="2046.51961327" y="60">tick-time</text><line stroke="green" x1="2046.6399" x2="2046.6399" y1="24" y2="34" /><text fill="black" font-size="6" x="2046.63991928" y="24">tick-future</text><circle cx="2076.0428" cy="70" fill="yellow" opacity="0.8" r="6" /><text fill="black" font-size="6" x="2076.04284286" y="70">tick-time</text><line stroke="green" x1="2076.0504" x2="2076.0504" y1="36" y2="46" /><text fill="black" font-size="6" x="2076.05042458" y="36">tick-future</text><line stroke="blue" x1="1987.3039" x2="1987.3039" y1="40" y2="60" /><text fill="black" font-size="6" x="1987.30392456" y="40">sync</text><line stroke="orange" x1="2105.3967" x2="2105.3967" y1="60" y2="80" /><text fill="black" font-size="6" x="2105.39674759" y="60">setting</text><circle cx="2105.3967" cy="80" fill="yellow" opacity="0.8" r="6" /><text fill="black" font-size="6" x="2105.39674759" y="80">tick-time</text><line stroke="green" x1="2105.4097" x2="2105.4097" y1="48" y2="58" /><text fill="black" font-size="6" x="2105.40971756" y="48">tick-future</text><circle cx="2134.9199" cy="90" fill="yellow" opacity="0.8" r="6" /><text fill="black" font-size="6" x="2134.9199295" y="90">tick-time</text><line stroke="green" x1="2134.926" x2="2134.926" y1="60" y2="70" /><text fill="black" font-size="6" x="2134.92598534" y="60">tick-future</text><circle cx="2164.4431" cy="0" fill="yellow" opacity="0.8" r="6" /><text fill="black" font-size="6" x="2164.44311142" y="0">tick-time</text><line stroke="green" x1="2164.4487" x2="2164.4487" y1="72" y2="82" /><text fill="black" font-size="6" x="2164.4487381" y="72">tick-future</text><circle cx="2193.9663" cy="10" fill="yellow" opacity="0.8" r="6" /><text fill="black" font-size="6" x="2193.96634102" y="10">tick-time</text><line stroke="green" x1="2193.9677" x2="2193.9677" y1="84" y2="94" /><text fill="black" font-size="6" x="2193.96772385" y="84">tick-future</text><line stroke="blue" x1="2104.9605" x2="2104.9605" y1="40" y2="60" /><text fill="black" font-size="6" x="2104.96048927" y="40">sync</text><line stroke="orange" x1="2223.0533" x2="2223.0533" y1="65" y2="85" /><text fill="black" font-size="6" x="2223.0533123" y="65">setting</text><circle cx="2223.0533" cy="20" fill="yellow" opacity="0.8" r="6" /><text fill="black" font-size="6" x="2223.0533123" y="20">tick-time</text><line stroke="green" x1="2223.0663" x2="2223.0663" y1="96" y2="106" /><text fill="black" font-size="6" x="2223.06628227" y="96">tick-future</text><circle cx="2252.5765" cy="30" fill="yellow" opacity="0.8" r="6" /><text fill="black" font-size="6" x="2252.57649422" y="30">tick-time</text><line stroke="green" x1="2252.5897" x2="2252.5897" y1="8" y2="18" /><text fill="black" font-size="6" x="2252.58970261" y="8">tick-future</text><circle cx="2282.0997" cy="40" fill="yellow" opacity="0.8" r="6" /><text fill="black" font-size="6" x="2282.09972382" y="40">tick-time</text><line stroke="green" x1="2282.106" x2="2282.106" y1="20" y2="30" /><text fill="black" font-size="6" x="2282.10601807" y="20">tick-future</text><circle cx="2311.6229" cy="50" fill="yellow" opacity="0.8" r="6" /><text fill="black" font-size="6" x="2311.62290573" y="50">tick-time</text><line stroke="green" x1="2311.632" x2="2311.632" y1="32" y2="42" /><text fill="black" font-size="6" x="2311.63201332" y="32">tick-future</text><circle cx="2341.1461" cy="60" fill="yellow" opacity="0.8" r="6" /><text fill="black" font-size="6" x="2341.14608765" y="60">tick-time</text><line stroke="green" x1="2341.1482" x2="2341.1482" y1="44" y2="54" /><text fill="black" font-size="6" x="2341.14818573" y="44">tick-future</text><line stroke="blue" x1="2223.5495" x2="2223.5495" y1="40" y2="60" /><text fill="black" font-size="6" x="2223.54950905" y="40">sync</text><line stroke="orange" x1="2371.1655" x2="2371.1655" y1="70" y2="90" /><text fill="black" font-size="6" x="2371.16551399" y="70">setting</text><circle cx="2371.1655" cy="70" fill="yellow" opacity="0.8" r="6" /><text fill="black" font-size="6" x="2371.16551399" y="70">tick-time</text><line stroke="green" x1="2371.1724" x2="2371.1724" y1="56" y2="66" /><text fill="black" font-size="6" x="2371.17242813" y="56">tick-future</text><circle cx="2400.6887" cy="80" fill="yellow" opacity="0.8" r="6" /><text fill="black" font-size="6" x="2400.68869591" y="80">tick-time</text><line stroke="green" x1="2400.6938" x2="2400.6938" y1="68" y2="78" /><text fill="black" font-size="6" x="2400.69375038" y="68">tick-future</text><circle cx="2430.2119" cy="90" fill="yellow" opacity="0.8" r="6" /><text fill="black" font-size="6" x="2430.21192551" y="90">tick-time</text><line stroke="green" x1="2430.2225" x2="2430.2225" y1="80" y2="90" /><text fill="black" font-size="6" x="2430.22251129" y="80">tick-future</text><circle cx="2459.7351" cy="0" fill="yellow" opacity="0.8" r="6" /><text fill="black" font-size="6" x="2459.73510742" y="0">tick-time</text><line stroke="green" x1="2459.7414" x2="2459.7414" y1="92" y2="102" /><text fill="black" font-size="6" x="2459.74140167" y="92">tick-future</text><line stroke="blue" x1="2345.8332" x2="2345.8332" y1="40" y2="60" /><text fill="black" font-size="6" x="2345.83320618" y="40">sync</text><line stroke="orange" x1="2493.4492" x2="2493.4492" y1="75" y2="95" /><text fill="black" font-size="6" x="2493.44921112" y="75">setting</text><circle cx="2493.4492" cy="10" fill="yellow" opacity="0.8" r="6" /><text fill="black" font-size="6" x="2493.44921112" y="10">tick-time</text><line stroke="green" x1="2493.4533" x2="2493.4533" y1="4" y2="14" /><text fill="black" font-size="6" x="2493.45331192" y="4">tick-future</text><circle cx="2522.9724" cy="20" fill="yellow" opacity="0.8" r="6" /><text fill="black" font-size="6" x="2522.97244072" y="20">tick-time</text><line stroke="green" x1="2522.9824" x2="2522.9824" y1="16" y2="26" /><text fill="black" font-size="6" x="2522.98240662" y="16">tick-future</text><circle cx="2552.4956" cy="30" fill="yellow" opacity="0.8" r="6" /><text fill="black" font-size="6" x="2552.49562263" y="30">tick-time</text><line stroke="green" x1="2552.5058" x2="2552.5058" y1="28" y2="38" /><text fill="black" font-size="6" x="2552.50582695" y="28">tick-future</text><line stroke="blue" x1="2461.6183" x2="2461.6183" y1="40" y2="60" /><text fill="black" font-size="6" x="2461.61832809" y="40">sync</text><line stroke="orange" x1="2579.7111" x2="2579.7111" y1="80" y2="100" /><text fill="black" font-size="6" x="2579.71110344" y="80">setting</text><circle cx="2579.7111" cy="40" fill="yellow" opacity="0.8" r="6" /><text fill="black" font-size="6" x="2579.71110344" y="40">tick-time</text><line stroke="green" x1="2579.7491" x2="2579.7491" y1="40" y2="50" /><text fill="black" font-size="6" x="2579.74910736" y="40">tick-future</text><circle cx="2609.2343" cy="50" fill="yellow" opacity="0.8" r="6" /><text fill="black" font-size="6" x="2609.23433304" y="50">tick-time</text><line stroke="green" x1="2609.2392" x2="2609.2392" y1="52" y2="62" /><text fill="black" font-size="6" x="2609.23924446" y="52">tick-future</text><circle cx="2638.7575" cy="60" fill="yellow" opacity="0.8" r="6" /><text fill="black" font-size="6" x="2638.75751495" y="60">tick-time</text><line stroke="green" x1="2638.7633" x2="2638.7633" y1="64" y2="74" /><text fill="black" font-size="6" x="2638.76328468" y="64">tick-future</text><circle cx="2668.2807" cy="70" fill="yellow" opacity="0.8" r="6" /><text fill="black" font-size="6" x="2668.28074455" y="70">tick-time</text><line stroke="green" x1="2668.2862" x2="2668.2862" y1="76" y2="86" /><text fill="black" font-size="6" x="2668.28622818" y="76">tick-future</text><line stroke="blue" x1="2578.2377" x2="2578.2377" y1="40" y2="60" /><text fill="black" font-size="6" x="2578.2377243" y="40">sync</text><line stroke="orange" x1="2696.3305" x2="2696.3305" y1="85" y2="105" /><text fill="black" font-size="6" x="2696.33054733" y="85">setting</text><circle cx="2696.3305" cy="80" fill="yellow" opacity="0.8" r="6" /><text fill="black" font-size="6" x="2696.33054733" y="80">tick-time</text><line stroke="green" x1="2696.3466" x2="2696.3466" y1="88" y2="98" /><text fill="black" font-size="6" x="2696.34661674" y="88">tick-future</text><circle cx="2725.8537" cy="90" fill="yellow" opacity="0.8" r="6" /><text fill="black" font-size="6" x="2725.85372925" y="90">tick-time</text><line stroke="green" x1="2725.9511" x2="2725.9511" y1="0" y2="10" /><text fill="black" font-size="6" x="2725.9510994" y="0">tick-future</text><circle cx="2755.3769" cy="0" fill="yellow" opacity="0.8" r="6" /><text fill="black" font-size="6" x="2755.37691116" y="0">tick-time</text><line stroke="green" x1="2755.3856" x2="2755.3856" y1="12" y2="22" /><text fill="black" font-size="6" x="2755.38563728" y="12">tick-future</text><circle cx="2784.9001" cy="10" fill="yellow" opacity="0.8" r="6" /><text fill="black" font-size="6" x="2784.90014076" y="10">tick-time</text><line stroke="green" x1="2784.9061" x2="2784.9061" y1="24" y2="34" /><text fill="black" font-size="6" x="2784.90610123" y="24">tick-future</text><circle cx="2814.4233" cy="20" fill="yellow" opacity="0.8" r="6" /><text fill="black" font-size="6" x="2814.42332268" y="20">tick-time</text><line stroke="green" x1="2814.4338" x2="2814.4338" y1="36" y2="46" /><text fill="black" font-size="6" x="2814.4338131" y="36">tick-future</text><line stroke="blue" x1="2704.3659" x2="2704.3659" y1="40" y2="60" /><text fill="black" font-size="6" x="2704.36592102" y="40">sync</text><line stroke="orange" x1="2851.9819" x2="2851.9819" y1="90" y2="110" /><text fill="black" font-size="6" x="2851.98192596" y="90">setting</text><circle cx="2851.9819" cy="30" fill="yellow" opacity="0.8" r="6" /><text fill="black" font-size="6" x="2851.98192596" y="30">tick-time</text><line stroke="green" x1="2851.9923" x2="2851.9923" y1="48" y2="58" /><text fill="black" font-size="6" x="2851.99232101" y="48">tick-future</text><circle cx="2881.5051" cy="40" fill="yellow" opacity="0.8" r="6" /><text fill="black" font-size="6" x="2881.50510788" y="40">tick-time</text><line stroke="green" x1="2881.624" x2="2881.624" y1="60" y2="70" /><text fill="black" font-size="6" x="2881.62403107" y="60">tick-future</text><circle cx="2911.0283" cy="50" fill="yellow" opacity="0.8" r="6" /><text fill="black" font-size="6" x="2911.02828979" y="50">tick-time</text><line stroke="green" x1="2911.0288" x2="2911.0288" y1="72" y2="82" /><text fill="black" font-size="6" x="2911.02881432" y="72">tick-future</text><circle cx="2940.5515" cy="60" fill="yellow" opacity="0.8" r="6" /><text fill="black" font-size="6" x="2940.55151939" y="60">tick-time</text><line stroke="green" x1="2940.5593" x2="2940.5593" y1="84" y2="94" /><text fill="black" font-size="6" x="2940.55929184" y="84">tick-future</text><circle cx="2970.0747" cy="70" fill="yellow" opacity="0.8" r="6" /><text fill="black" font-size="6" x="2970.07470131" y="70">tick-time</text><line stroke="green" x1="2970.081" x2="2970.081" y1="96" y2="106" /><text fill="black" font-size="6" x="2970.08099556" y="96">tick-future</text><circle cx="2999.5979" cy="80" fill="yellow" opacity="0.8" r="6" /><text fill="black" font-size="6" x="2999.59788322" y="80">tick-time</text><line stroke="green" x1="2999.6015" x2="2999.6015" y1="8" y2="18" /><text fill="black" font-size="6" x="2999.60150719" y="8">tick-future</text><circle cx="3029.1211" cy="90" fill="yellow" opacity="0.8" r="6" /><text fill="black" font-size="6" x="3029.12111282" y="90">tick-time</text><line stroke="green" x1="3029.24" x2="3029.24" y1="20" y2="30" /><text fill="black" font-size="6" x="3029.23998833" y="20">tick-future</text><circle cx="3058.6443" cy="0" fill="yellow" opacity="0.8" r="6" /><text fill="black" font-size="6" x="3058.64429474" y="0">tick-time</text><line stroke="green" x1="3058.6498" x2="3058.6498" y1="32" y2="42" /><text fill="black" font-size="6" x="3058.64982605" y="32">tick-future</text></svg>